<svg xmlns="http://www.w3.org/2000/svg" xmlns:xlink="http://www.w3.org/1999/xlink" viewBox="0 0 94 94"><defs><style>.cls-1,.cls-2,.cls-3,.cls-4{fill:none;stroke-miterlimit:10;stroke-width:4px;}.cls-1{stroke:url(#linear-gradient);}.cls-2{stroke:url(#linear-gradient-2);}.cls-3{stroke:url(#linear-gradient-3);}.cls-4{stroke:url(#linear-gradient-4);}</style><linearGradient id="linear-gradient" x1="45" y1="24.5" x2="94" y2="24.5" gradientUnits="userSpaceOnUse"><stop offset="0" stop-color="aqua"/><stop offset="1" stop-color="#00deff"/></linearGradient><linearGradient id="linear-gradient-2" x1="0" y1="24.5" x2="59.43" y2="24.5" xlink:href="#linear-gradient"/><linearGradient id="linear-gradient-3" x1="0" y1="64.83" x2="59.43" y2="64.83" xlink:href="#linear-gradient"/><linearGradient id="linear-gradient-4" x1="45" y1="64.72" y2="64.72" xlink:href="#linear-gradient"/></defs><title>Puzzle-grad</title><g id="Layer_2" data-name="Layer 2"><g id="Layer_1-2" data-name="Layer 1"><path class="cls-1" d="M92,47H76.59c.13-12.32-16.06-12.5-16.2-.18L47,47V30.87c13.93,0,13.93-15.28,0-15.28V2H92Z"/><path class="cls-2" d="M47,47H31.59c.13-12.32-16.06-12.5-16.2-.18L2,47V2H47V15.59c13.9,0,13.9,15.28,0,15.28Z"/><path class="cls-3" d="M47,92H31.59c0,.12-16.2,0-16.2-.18L2,92V47H15.39c0-12.44,16.43-12.44,16.43,0H47V60.57c13.9,0,13.9,15.28,0,15.28Z"/><path class="cls-4" d="M92,92H76.59c0,.12-16.2,0-16.2-.18L47,92V75.85c13.93,0,13.93-15.28,0-15.28V47H60.39a8.31,8.31,0,1,1,16.43,0H92Z"/></g></g></svg>