<?xml version="1.0" encoding="utf-8"?>
<!-- Generator: Adobe Illustrator 23.0.6, SVG Export Plug-In . SVG Version: 6.00 Build 0)  -->
<svg version="1.1" id="Layer_1" xmlns="http://www.w3.org/2000/svg" xmlns:xlink="http://www.w3.org/1999/xlink" x="0px" y="0px"
	 viewBox="0 0 52 25.8" style="enable-background:new 0 0 52 25.8;" xml:space="preserve">
<style type="text/css">
	.st0{fill:none;stroke:#F2F2F2;stroke-miterlimit:10;}
	.st1{fill:url(#SVGID_1_);stroke:#F2F2F2;stroke-miterlimit:10;}
</style>
<title>Asset 5hdpi</title>
<g>
	<g id="Layer_1-2">
		<path class="st0" d="M5.2,25.1c-3.1,0-4.7-1.5-4.7-4.6V5.2C0.4,3.9,0.8,2.7,1.6,1.8c1-0.8,2.2-1.3,3.5-1.2c2.3,0,4.8-0.1,7-0.1
			c2,0,3.5,1.6,3.5,3.5c0,0.9-0.3,1.7-0.9,2.4l-0.6,0.7c-0.7,0.7-1.6,1.2-2.6,1.2h-1c-1.9,0-3.6,1.5-3.6,3.4c0,0,0,0.1,0,0.1V14
			c0,2,1.6,3.5,3.5,3.5c0,0,0,0,0,0h4.9c1,0,1.9-0.4,2.6-1.1L31.4,2.2c1.1-1.1,2.5-1.7,4.1-1.7h11.3c3.1,0,4.7,1.5,4.7,4.6v15.3
			c0.1,1.3-0.3,2.5-1.2,3.5c-1,0.8-2.2,1.2-3.5,1.2c-1.7,0-3.8,0.1-6.3,0.1c-2,0.1-3.6-1.5-3.6-3.4c0-1,0.4-1.9,1-2.6l0.7-0.7
			c0.7-0.6,1.6-1,2.5-1h0.3c2,0,3.5-1.6,3.5-3.5v0v-2.3c0-2-1.6-3.5-3.5-3.5l0,0h-4.1c-1,0-1.9,0.4-2.6,1.1L21.4,23.5
			c-1.1,1.1-2.6,1.7-4.1,1.7H5.2z"/>
		
			<linearGradient id="SVGID_1_" gradientUnits="userSpaceOnUse" x1="-1384.2928" y1="-303.0206" x2="-1363.1628" y2="-303.0206" gradientTransform="matrix(-0.85 0.12 -0.12 0.91 -1177.2012 453.187)">
			<stop  offset="0" style="stop-color:#29ABE2"/>
			<stop  offset="0.17" style="stop-color:#29A7DF"/>
			<stop  offset="0.36" style="stop-color:#2A9AD7"/>
			<stop  offset="0.54" style="stop-color:#2B85C9"/>
			<stop  offset="0.74" style="stop-color:#2C67B5"/>
			<stop  offset="0.93" style="stop-color:#2D419C"/>
			<stop  offset="1" style="stop-color:#2E3192"/>
		</linearGradient>
		<path class="st1" d="M33.7,19.2c1.6-1.7,1.6-4.2,0-5c-1.8-0.9-3.5-2-5-3.3c-1.8-1.6-3.4-3.4-4.6-5.4C23.2,4,21,4.1,19.5,5.8
			l-0.1,0.1c-1.6,1.9-1.4,4.4,0.4,5c2.1,0.6,3.9,1.7,5.5,3.3c1.5,1.5,2.6,3.3,3.3,5.3c0.7,1.8,3.1,1.9,4.7,0.2L33.7,19.2z"/>
	</g>
</g>
</svg>
