<svg xmlns="http://www.w3.org/2000/svg" xmlns:xlink="http://www.w3.org/1999/xlink" viewBox="0 0 25.77 51.99"><defs><style>.cls-1{fill:none;}.cls-1,.cls-2{stroke:#f2f2f2;stroke-miterlimit:10;}.cls-2{fill:url(#linear-gradient);}</style><linearGradient id="linear-gradient" x1="-709.21" y1="447.49" x2="-688.08" y2="447.49" gradientTransform="matrix(-0.12, -0.85, 0.91, 0.12, -474.95, -620.33)" gradientUnits="userSpaceOnUse"><stop offset="0" stop-color="#29abe2"/><stop offset="0.17" stop-color="#29a7df"/><stop offset="0.36" stop-color="#2a9ad7"/><stop offset="0.54" stop-color="#2b85c9"/><stop offset="0.74" stop-color="#2c67b5"/><stop offset="0.93" stop-color="#2d419c"/><stop offset="1" stop-color="#2e3192"/></linearGradient></defs><title>Asset 5hdpi</title><g id="Layer_2" data-name="Layer 2"><g id="Layer_1-2" data-name="Layer 1"><path class="cls-1" d="M.63,5.16Q.63.49,5.26.5H20.6A4.67,4.67,0,0,1,24,1.63,4.92,4.92,0,0,1,25.2,5.16c.05,2.34.07,4.77.07,7a3.54,3.54,0,0,1-5.93,2.61l-.66-.6a3.54,3.54,0,0,1-1.15-2.63v-1A3.53,3.53,0,0,0,14,6.92H11.8a3.54,3.54,0,0,0-3.55,3.54V15.4A3.53,3.53,0,0,0,9.36,18L23.53,31.39a5.39,5.39,0,0,1,1.67,4.07V46.8c0,3.12-1.54,4.69-4.6,4.69H5.26a4.7,4.7,0,0,1-3.47-1.16A4.9,4.9,0,0,1,.63,46.86c0-1.67-.08-3.78-.13-6.27A3.54,3.54,0,0,1,6.55,38l.66.66a3.54,3.54,0,0,1,1,2.5v.35a3.54,3.54,0,0,0,3.54,3.54H14a3.54,3.54,0,0,0,3.54-3.54V37.38a3.54,3.54,0,0,0-1.11-2.58L2.29,21.45A5.4,5.4,0,0,1,.63,17.31Z"/><path class="cls-2" d="M6.6,33.74c1.71,1.62,4.21,1.6,5,0a22.76,22.76,0,0,1,3.28-5,23.59,23.59,0,0,1,5.44-4.61c1.48-.91,1.31-3.14-.36-4.62l-.08-.07c-1.85-1.64-4.43-1.42-5,.43a13.13,13.13,0,0,1-3.26,5.47,14,14,0,0,1-5.26,3.3c-1.84.67-1.91,3.07-.17,4.72Z"/></g></g></svg>